#!OML:ASF G:\JayActor3\Patient Classification 1\Patient 1\Session 6\male.ASF
:FULLY-SPECIFIED
:DEGREES
3880
root -3.61288 15.3906 13.1558 216.508 -41.6181 -188.764
lowerback 37.6958 0.232469 12.0988
upperback 6.24602 3.9222 2.25523
thorax -10.8029 0.886083 -5.31682
lowerneck 13.4654 11.9712 6.71183
upperneck -35.3261 11.4967 -22.6388
head -11.6523 6.623 -11.3701
rclavicle -1.27222e-014 -9.54166e-015
rhumerus -45.7295 -5.76645 -78.137
rradius 65.5869
rwrist -0.614806
rhand -25.5313 -1.72743
rfingers 7.12502
rthumb 0.998418 -31.7048
lclavicle -1.27222e-014 -9.54166e-015
lhumerus -42.3089 -24.8401 87.8325
lradius 74.1822
lwrist 34.5415
lhand -21.9734 0.896489
lfingers 7.12502
lthumb 4.43449 30.8301
rfemur -75.2572 -12.6761 20.0239
rtibia 67.0414
rfoot -23.9243 -20.1519
rtoes -2.41361
lfemur -68.3474 2.04645 -33.5079
ltibia 50.9752
lfoot -10.4626 -10.5782
ltoes 18.5516
3881
root -3.61403 15.3912 13.158 216.458 -41.5966 -188.708
lowerback 37.7143 0.224117 12.0921
upperback 6.25124 3.90794 2.24558
thorax -10.8056 0.879068 -5.31823
lowerneck 13.4712 11.9751 6.69236
upperneck -35.336 11.5007 -22.6233
head -11.6602 6.62491 -11.3634
rclavicle 7.31528e-014 8.42847e-014
rhumerus -45.6747 -5.74009 -78.1769
rradius 65.5792
rwrist -0.558792
rhand -25.4936 -1.75278
rfingers 7.12502
rthumb 1.0348 -31.73
lclavicle 7.31528e-014 8.42847e-014
lhumerus -42.3189 -24.831 87.8178
lradius 74.2053
lwrist 34.598
lhand -22.0047 0.879913
lfingers 7.12502
lthumb 4.40424 30.8141
rfemur -75.2337 -12.6348 20.0413
rtibia 67.023
rfoot -23.9337 -20.1556
rtoes -2.38692
lfemur -68.3471 2.07023 -33.4722
ltibia 50.9875
lfoot -10.4788 -10.5785
ltoes 18.5098
3882
root -3.61518 15.3915 13.1603 216.409 -41.5728 -188.654
lowerback 37.7296 0.218517 12.0835
upperback 6.25753 3.89575 2.23496
thorax -10.8057 0.873298 -5.32051
lowerneck 13.4752 11.9763 6.67822
upperneck -35.3364 11.504 -22.6056
head -11.6638 6.62615 -11.3549
rclavicle -1.08139e-013 2.8625e-014
rhumerus -45.6242 -5.73171 -78.2112
rradius 65.5717
rwrist -0.50482
rhand -25.4784 -1.69813
rfingers 7.12502
rthumb 1.04955 -31.6753
lclavicle -1.08139e-013 2.8625e-014
lhumerus -42.3339 -24.8373 87.8065
lradius 74.2311
lwrist 34.6626
lhand -22.0376 0.872289
lfingers 7.12502
lthumb 4.37242 30.8072
rfemur -75.2125 -12.594 20.0533
rtibia 67.012
rfoot -23.9775 -20.1154
rtoes -2.23575
lfemur -68.353 2.10164 -33.4457
ltibia 51.006
lfoot -10.5033 -10.583
ltoes 18.4229
3883
root -3.61611 15.3913 13.1626 216.364 -41.548 -188.6
lowerback 37.7423 0.216935 12.0711
upperback 6.26403 3.88697 2.22549
thorax -10.8045 0.869309 -5.32095
lowerneck 13.4764 11.9741 6.66661
upperneck -35.3267 11.5057 -22.5833
head -11.6632 6.62636 -11.3431
rclavicle -1.90833e-014 2.54444e-014
rhumerus -45.5825 -5.73439 -78.2393
rradius 65.5692
rwrist -0.464849
rhand -25.4723 -1.61036
rfingers 7.12502
rthumb 1.05546 -31.5875
lclavicle -1.90833e-014 2.54444e-014
lhumerus -42.3537 -24.8562 87.8009
lradius 74.2575
lwrist 34.7216
lhand -22.0673 0.8683
lfingers 7.12502
lthumb 4.34375 30.8038
rfemur -75.1986 -12.5528 20.0642
rtibia 67.0083
rfoot -24.0193 -20.0738
rtoes -2.08886
lfemur -68.3671 2.14258 -33.429
ltibia 51.0292
lfoot -10.5254 -10.5963
ltoes 18.3327
3884
root -3.6169 15.3908 13.1651 216.323 -41.5216 -188.55
lowerback 37.75 0.219317 12.055
upperback 6.27116 3.88111 2.21521
thorax -10.8008 0.867075 -5.32154
lowerneck 13.4717 11.9683 6.6633
upperneck -35.3058 11.5064 -22.5583
head -11.6566 6.62525 -11.329
rclavicle 1.01778e-013 -1.90833e-014
rhumerus -45.5488 -5.74457 -78.2652
rradius 65.5754
rwrist -0.446461
rhand -25.4775 -1.49972
rfingers 7.12502
rthumb 1.05036 -31.4769
lclavicle 1.01778e-013 -1.90833e-014
lhumerus -42.3763 -24.883 87.7991
lradius 74.2837
lwrist 34.7704
lhand -22.0876 0.866627
lfingers 7.12502
lthumb 4.32423 30.8025
rfemur -75.1924 -12.5132 20.0693
rtibia 67.0127
rfoot -24.081 -20.0032
rtoes -1.86674
lfemur -68.3887 2.19243 -33.4269
ltibia 51.056
lfoot -10.5541 -10.6149
ltoes 18.1828
3885
root -3.61772 15.3898 13.1677 216.292 -41.4946 -188.509
lowerback 37.7507 0.222961 12.0342
upperback 6.27971 3.87398 2.20404
thorax -10.7936 0.864826 -5.32011
lowerneck 13.4631 11.9611 6.66172
upperneck -35.2788 11.5077 -22.5279
head -11.6469 6.62375 -11.3116
rclavicle -2.22639e-014 -2.22639e-014
rhumerus -45.5211 -5.75264 -78.2919
rradius 65.5908
rwrist -0.447582
rhand -25.4942 -1.39356
rfingers 7.12502
rthumb 1.0343 -31.3708
lclavicle -2.22639e-014 -2.22639e-014
lhumerus -42.4001 -24.9083 87.7999
lradius 74.3072
lwrist 34.7969
lhand -22.0896 0.869456
lfingers 7.12502
lthumb 4.32226 30.8053
rfemur -75.1947 -12.4791 20.0688
rtibia 67.0233
rfoot -24.1412 -19.9262
rtoes -1.63758
lfemur -68.416 2.24585 -33.4391
ltibia 51.084
lfoot -10.5662 -10.6424
ltoes 18.0934
3886
root -3.61843 15.3885 13.1704 216.265 -41.4707 -188.47
lowerback 37.7453 0.225787 12.0113
upperback 6.28969 3.8643 2.19474
thorax -10.7833 0.861757 -5.31457
lowerneck 13.4531 11.954 6.66009
upperneck -35.2488 11.5103 -22.4949
head -11.6358 6.62264 -11.2926
rclavicle -3.18055e-014 -8.90555e-014
rhumerus -45.4982 -5.75125 -78.3197
rradius 65.6193
rwrist -0.462489
rhand -25.5182 -1.30601
rfingers 7.12502
rthumb 1.01112 -31.2834
lclavicle -3.18055e-014 -8.90555e-014
lhumerus -42.423 -24.9232 87.802
lradius 74.3267
lwrist 34.7934
lhand -22.0811 0.867944
lfingers 7.12502
lthumb 4.33049 30.8037
rfemur -75.208 -12.451 20.0765
rtibia 67.0348
rfoot -24.1504 -19.8998
rtoes -1.57918
lfemur -68.4482 2.29986 -33.4561
ltibia 51.1121
lfoot -10.5609 -10.6769
ltoes 18.069
3887
root -3.61921 15.3872 13.1732 216.243 -41.4503 -188.439
lowerback 37.738 0.225438 11.9879
upperback 6.30114 3.84982 2.18449
thorax -10.7714 0.856711 -5.30778
lowerneck 13.4413 11.9454 6.66515
upperneck -35.2151 11.513 -22.4623
head -11.622 6.621 -11.274
rclavicle -3.18055e-015 -3.81667e-014
rhumerus -45.4795 -5.74225 -78.3516
rradius 65.661
rwrist -0.481909
rhand -25.5335 -1.28026
rfingers 7.12502
rthumb 0.996311 -31.2577
lclavicle -3.18055e-015 -3.81667e-014
lhumerus -42.4443 -24.9372 87.8011
lradius 74.3425
lwrist 34.7658
lhand -22.0713 0.860332
lfingers 7.12502
lthumb 4.33992 30.7959
rfemur -75.2219 -12.4317 20.0821
rtibia 67.0465
rfoot -24.1514 -19.8793
rtoes -1.54327
lfemur -68.4765 2.3492 -33.4788
ltibia 51.1379
lfoot -10.5414 -10.7129
ltoes 18.105
3888
root -3.61998 15.386 13.176 216.224 -41.4362 -188.413
lowerback 37.7275 0.220469 11.9666
upperback 6.31401 3.82973 2.17453
thorax -10.7572 0.849258 -5.29946
lowerneck 13.4289 11.9381 6.67166
upperneck -35.1803 11.5185 -22.4296
head -11.607 6.6205 -11.2554
rclavicle -2.54444e-014 6.36111e-015
rhumerus -45.4582 -5.73346 -78.3854
rradius 65.7027
rwrist -0.486643
rhand -25.5328 -1.30402
rfingers 7.12502
rthumb 0.996967 -31.2814
lclavicle -2.54444e-014 6.36111e-015
lhumerus -42.4611 -24.9475 87.7959
lradius 74.3529
lwrist 34.7212
lhand -22.0505 0.848529
lfingers 7.12502
lthumb 4.36002 30.7836
rfemur -75.2364 -12.4191 20.0903
rtibia 67.0554
rfoot -24.1346 -19.8799
rtoes -1.57347
lfemur -68.5032 2.38969 -33.4993
ltibia 51.1603
lfoot -10.5145 -10.749
ltoes 18.1566
3889
root -3.62059 15.3852 13.1787 216.206 -41.4315 -188.388
lowerback 37.7201 0.21097 11.951
upperback 6.32611 3.80683 2.16577
thorax -10.745 0.840157 -5.29166
lowerneck 13.418 11.9319 6.68276
upperneck -35.1443 11.5267 -22.3999
head -11.5905 6.62135 -11.2387
rclavicle -4.77083e-014 4.77083e-015
rhumerus -45.4352 -5.73009 -78.4187
rradius 65.7385
rwrist -0.470201
rhand -25.5145 -1.37479
rfingers 7.12502
rthumb 1.01467 -31.3521
lclavicle -4.77083e-014 4.77083e-015
lhumerus -42.4753 -24.9629 87.7884
lradius 74.3586
lwrist 34.6734
lhand -22.0326 0.827847
lfingers 7.12502
lthumb 4.3773 30.7626
rfemur -75.2444 -12.4099 20.0986
rtibia 67.0618
rfoot -24.1324 -19.8718
rtoes -1.56171
lfemur -68.5238 2.4195 -33.5106
ltibia 51.1772
lfoot -10.4874 -10.781
ltoes 18.2136
3890
root -3.62113 15.3847 13.1816 216.19 -41.4341 -188.367
lowerback 37.7142 0.198141 11.9402
upperback 6.33702 3.78214 2.1573
thorax -10.7345 0.829999 -5.28526
lowerneck 13.4083 11.9269 6.69728
upperneck -35.1084 11.5375 -22.3717
head -11.5733 6.62327 -11.2234
rclavicle -3.18055e-015 -4.13472e-014
rhumerus -45.413 -5.73394 -78.4501
rradius 65.7672
rwrist -0.430267
rhand -25.4874 -1.46231
rfingers 7.12502
rthumb 1.0408 -31.4395
lclavicle -3.18055e-015 -4.13472e-014
lhumerus -42.4858 -24.9801 87.7789
lradius 74.3596
lwrist 34.632
lhand -22.0099 0.806657
lfingers 7.12502
lthumb 4.3992 30.741
rfemur -75.2461 -12.4034 20.1003
rtibia 67.0662
rfoot -24.1702 -19.8276
rtoes -1.41431
lfemur -68.5397 2.43726 -33.5159
ltibia 51.188
lfoot -10.4604 -10.8053
ltoes 18.2581
3891
root -3.62143 15.3847 13.1844 216.174 -41.4437 -188.346
lowerback 37.7128 0.183962 11.9347
upperback 6.34648 3.75879 2.15106
thorax -10.7266 0.82001 -5.27968
lowerneck 13.4008 11.9237 6.70788
upperneck -35.0771 11.55 -22.3422
head -11.5586 6.62609 -11.2081
rclavicle 3.81667e-014 9.54166e-015
rhumerus -45.3908 -5.74611 -78.4773
rradius 65.7794
rwrist -0.370634
rhand -25.4657 -1.52931
rfingers 7.12502
rthumb 1.06181 -31.5064
lclavicle 3.81667e-014 9.54166e-015
lhumerus -42.4915 -24.9955 87.7694
lradius 74.3567
lwrist 34.6004
lhand -21.9748 0.788853
lfingers 7.12502
lthumb 4.43315 30.7225
rfemur -75.243 -12.3958 20.1018
rtibia 67.0667
rfoot -24.2203 -19.7774
rtoes -1.22498
lfemur -68.5518 2.44587 -33.5121
ltibia 51.1921
lfoot -10.4341 -10.8225
ltoes 18.297
3892
root -3.62159 15.3849 13.1874 216.157 -41.4588 -188.321
lowerback 37.7141 0.169177 11.9322
upperback 6.3556 3.73657 2.1491
thorax -10.7199 0.810202 -5.27144
lowerneck 13.397 11.9241 6.70963
upperneck -35.0552 11.564 -22.3132
head -11.549 6.63024 -11.1935
rclavicle -6.04305e-014 -2.06736e-014
rhumerus -45.3723 -5.75086 -78.5006
rradius 65.7832
rwrist -0.308065
rhand -25.4552 -1.57256
rfingers 7.12502
rthumb 1.07189 -31.5496
lclavicle -6.04305e-014 -2.06736e-014
lhumerus -42.493 -25.0013 87.7641
lradius 74.3508
lwrist 34.5822
lhand -21.9405 0.769789
lfingers 7.12502
lthumb 4.46618 30.7027
rfemur -75.2362 -12.3867 20.1045
rtibia 67.0617
rfoot -24.273 -19.7281
rtoes -1.02803
lfemur -68.5614 2.44639 -33.5003
ltibia 51.1911
lfoot -10.413 -10.8296
ltoes 18.3117
3893
root -3.62169 15.3853 13.1904 216.14 -41.476 -188.297
lowerback 37.7178 0.154824 11.9306
upperback 6.36459 3.71574 2.14989
thorax -10.714 0.800824 -5.26121
lowerneck 13.396 11.9267 6.70233
upperneck -35.0449 11.5777 -22.2833
head -11.5457 6.63447 -11.1792
rclavicle 3.49861e-014 -3.18055e-014
rhumerus -45.3568 -5.74784 -78.522
rradius 65.7743
rwrist -0.251409
rhand -25.4564 -1.58762
rfingers 7.12502
rthumb 1.07081 -31.5647
lclavicle 3.49861e-014 -3.18055e-014
lhumerus -42.4931 -25.0007 87.7637
lradius 74.3436
lwrist 34.5727
lhand -21.9171 0.757508
lfingers 7.12502
lthumb 4.48883 30.6899
rfemur -75.2253 -12.3733 20.1037
rtibia 67.0496
rfoot -24.3234 -19.6849
rtoes -0.829918
lfemur -68.5687 2.43892 -33.4823
ltibia 51.1866
lfoot -10.3938 -10.8276
ltoes 18.3206
3894
root -3.62155 15.3857 13.1934 216.12 -41.4954 -188.263
lowerback 37.7221 0.142494 11.9288
upperback 6.37296 3.69802 2.15682
thorax -10.709 0.792614 -5.24542
lowerneck 13.3991 11.9313 6.68333
upperneck -35.0473 11.589 -22.2535
head -11.5499 6.63821 -11.1656
rclavicle 6.04305e-014 9.54166e-014
rhumerus -45.3489 -5.724 -78.5413
rradius 65.7642
rwrist -0.21405
rhand -25.487 -1.52983
rfingers 7.12502
rthumb 1.04119 -31.507
lclavicle 6.04305e-014 9.54166e-014
lhumerus -42.4933 -24.9848 87.7694
lradius 74.337
lwrist 34.5638
lhand -21.9137 0.748185
lfingers 7.12502
lthumb 4.49209 30.6806
rfemur -75.2179 -12.3507 20.1138
rtibia 67.0285
rfoot -24.3231 -19.7026
rtoes -0.807822
lfemur -68.5812 2.42816 -33.4518
ltibia 51.1815
lfoot -10.3754 -10.818
ltoes 18.3346
